<?xml version="1.0" encoding="utf-8"?>
<svg version="1.1" xmlns:xlink="http://www.w3.org/1999/xlink" width="26px" height="24px" xmlns="http://www.w3.org/2000/svg">
  <g transform="matrix(1 0 0 1 -38 -24 )">
    <path d="M 8.74162946428571 11.6491694352159  C 9.10435267857143 11.2504983388704  9.28571428571429 10.7694352159468  9.28571428571429 10.2059800664452  C 9.28571428571429 9.64252491694352  9.10435267857143 9.16146179401993  8.74162946428571 8.76279069767442  C 8.37890625 8.3641196013289  7.94122023809524 8.16478405315615  7.42857142857143 8.16478405315615  C 6.91592261904762 8.16478405315615  6.47823660714286 8.3641196013289  6.11551339285714 8.76279069767442  C 5.75279017857143 9.16146179401993  5.57142857142857 9.64252491694352  5.57142857142857 10.2059800664452  C 5.57142857142857 10.7694352159468  5.75279017857143 11.2504983388704  6.11551339285714 11.6491694352159  C 6.47823660714286 12.0478405315615  6.91592261904762 12.2471760797342  7.42857142857143 12.2471760797342  C 7.94122023809524 12.2471760797342  8.37890625 12.0478405315615  8.74162946428571 11.6491694352159  Z M 14.3130580357143 11.6491694352159  C 14.67578125 11.2504983388704  14.8571428571429 10.7694352159468  14.8571428571429 10.2059800664452  C 14.8571428571429 9.64252491694352  14.67578125 9.16146179401993  14.3130580357143 8.76279069767442  C 13.9503348214286 8.3641196013289  13.5126488095238 8.16478405315615  13 8.16478405315615  C 12.4873511904762 8.16478405315615  12.0496651785714 8.3641196013289  11.6869419642857 8.76279069767442  C 11.32421875 9.16146179401993  11.1428571428571 9.64252491694352  11.1428571428571 10.2059800664452  C 11.1428571428571 10.7694352159468  11.32421875 11.2504983388704  11.6869419642857 11.6491694352159  C 12.0496651785714 12.0478405315615  12.4873511904762 12.2471760797342  13 12.2471760797342  C 13.5126488095238 12.2471760797342  13.9503348214286 12.0478405315615  14.3130580357143 11.6491694352159  Z M 19.8844866071429 11.6491694352159  C 20.2472098214286 11.2504983388704  20.4285714285714 10.7694352159468  20.4285714285714 10.2059800664452  C 20.4285714285714 9.64252491694352  20.2472098214286 9.16146179401993  19.8844866071429 8.76279069767442  C 19.5217633928571 8.3641196013289  19.0840773809524 8.16478405315615  18.5714285714286 8.16478405315615  C 18.0587797619048 8.16478405315615  17.62109375 8.3641196013289  17.2583705357143 8.76279069767442  C 16.8956473214286 9.16146179401993  16.7142857142857 9.64252491694352  16.7142857142857 10.2059800664452  C 16.7142857142857 10.7694352159468  16.8956473214286 11.2504983388704  17.2583705357143 11.6491694352159  C 17.62109375 12.0478405315615  18.0587797619048 12.2471760797342  18.5714285714286 12.2471760797342  C 19.0840773809524 12.2471760797342  19.5217633928571 12.0478405315615  19.8844866071429 11.6491694352159  Z M 24.2589285714286 5.07906976744186  C 25.4196428571429 6.64717607973422  26 8.35614617940199  26 10.2059800664452  C 26 12.0558139534884  25.4196428571429 13.7647840531561  24.2589285714286 15.3328903654485  C 23.0982142857143 16.9009966777409  21.5215773809524 18.1395348837209  19.5290178571429 19.0485049833887  C 17.5364583333333 19.9574750830565  15.360119047619 20.4119601328904  13 20.4119601328904  C 11.9360119047619 20.4119601328904  10.9155505952381 20.3162790697674  9.93861607142857 20.1249169435216  C 8.26525297619048 21.9641196013289  6.16145833333333 23.1813953488372  3.62723214285714 23.7767441860465  C 3.12425595238095 23.8830564784053  2.70833333333333 23.9521594684385  2.37946428571429 23.9840531561462  C 2.26339285714286 23.9946843853821  2.15699404761905 23.9627906976744  2.06026785714286 23.8883720930233  C 1.96354166666667 23.8139534883721  1.90066964285714 23.7182724252492  1.87165178571429 23.6013289036545  C 1.83296130952381 23.4418604651163  1.9296875 23.2451827242525  2.16183035714286 23.0112956810631  C 2.21019345238095 22.9581395348837  2.32384672619048 22.843853820598  2.50279017857143 22.668438538206  C 2.68173363095238 22.493023255814  2.80505952380952 22.3681063122924  2.87276785714286 22.2936877076412  C 2.94047619047619 22.21926910299  3.05412946428571 22.0837209302326  3.21372767857143 21.8870431893688  C 3.37332589285714 21.690365448505  3.48939732142857 21.5229235880399  3.56194196428571 21.3847176079734  C 3.63448660714286 21.246511627907  3.73363095238095 21.0498338870432  3.859375 20.7946843853821  C 3.98511904761905 20.5395348837209  4.08184523809524 20.2843853820598  4.14955357142857 20.0292358803987  C 4.21726190476191 19.7740863787375  4.28738839285714 19.468438538206  4.35993303571429 19.112292358804  C 4.43247767857143 18.756146179402  4.49293154761905 18.3707641196013  4.54129464285714 17.956146179402  C 3.12909226190476 16.9993355481728  2.01915922619048 15.8485049833887  1.21149553571429 14.5036544850498  C 0.403831845238095 13.158803986711  0 11.7262458471761  0 10.2059800664452  C 0 8.35614617940199  0.580357142857143 6.64717607973422  1.74107142857143 5.07906976744186  C 2.90178571428571 3.5109634551495  4.47842261904762 2.27242524916944  6.47098214285714 1.36345514950166  C 8.46354166666667 0.454485049833888  10.639880952381 0  13 0  C 15.360119047619 0  17.5364583333333 0.454485049833888  19.5290178571429 1.36345514950166  C 21.5215773809524 2.27242524916944  23.0982142857143 3.5109634551495  24.2589285714286 5.07906976744186  Z " fill-rule="nonzero" fill="#ffffff" stroke="none" transform="matrix(1 0 0 1 38 24 )" />
  </g>
</svg>