<?xml version="1.0" encoding="utf-8"?>
<svg version="1.1" xmlns:xlink="http://www.w3.org/1999/xlink" width="26px" height="24px" xmlns="http://www.w3.org/2000/svg">
  <g transform="matrix(1 0 0 1 -38 -24 )">
    <path d="M 13 22.9285714285714  C 13.1666666666667 22.9285714285714  13.25 22.8571428571429  13.25 22.7142857142857  C 13.25 22.5714285714286  13.1666666666667 22.5  13 22.5  C 12.3854166666667 22.5  11.8567708333333 22.3102678571429  11.4140625 21.9308035714286  C 10.9713541666667 21.5513392857143  10.75 21.0982142857143  10.75 20.5714285714286  C 10.75 20.4285714285714  10.6666666666667 20.3571428571429  10.5 20.3571428571429  C 10.3333333333333 20.3571428571429  10.25 20.4285714285714  10.25 20.5714285714286  C 10.25 21.2232142857143  10.5182291666667 21.7790178571429  11.0546875 22.2388392857143  C 11.5911458333333 22.6986607142857  12.2395833333333 22.9285714285714  13 22.9285714285714  Z M 24.578125 17.6785714285714  C 25.0052083333333 18.0892857142857  25.4791666666667 18.4821428571429  26 18.8571428571429  C 26 19.3214285714286  25.8020833333333 19.7232142857143  25.40625 20.0625  C 25.0104166666667 20.4017857142857  24.5416666666667 20.5714285714286  24 20.5714285714286  L 17 20.5714285714286  C 17 21.5178571428571  16.609375 22.3258928571429  15.828125 22.9955357142857  C 15.046875 23.6651785714286  14.1041666666667 24  13 24  C 11.8958333333333 24  10.953125 23.6651785714286  10.171875 22.9955357142857  C 9.390625 22.3258928571429  9 21.5178571428571  9 20.5714285714286  L 2 20.5714285714286  C 1.45833333333333 20.5714285714286  0.989583333333333 20.4017857142857  0.59375 20.0625  C 0.197916666666667 19.7232142857143  0 19.3214285714286  0 18.8571428571429  C 0.520833333333333 18.4821428571429  0.994791666666667 18.0892857142857  1.421875 17.6785714285714  C 1.84895833333333 17.2678571428571  2.29166666666667 16.734375  2.75 16.078125  C 3.20833333333333 15.421875  3.59635416666667 14.7142857142857  3.9140625 13.9553571428571  C 4.23177083333333 13.1964285714286  4.4921875 12.2767857142857  4.6953125 11.1964285714286  C 4.8984375 10.1160714285714  5 8.95535714285714  5 7.71428571428571  C 5 6.35714285714286  5.609375 5.09598214285714  6.828125 3.93080357142857  C 8.046875 2.765625  9.64583333333333 2.05803571428571  11.625 1.80803571428571  C 11.5416666666667 1.63839285714285  11.5 1.46428571428571  11.5 1.28571428571429  C 11.5 0.928571428571428  11.6458333333333 0.624999999999999  11.9375 0.375  C 12.2291666666667 0.125000000000001  12.5833333333333 0  13 0  C 13.4166666666667 0  13.7708333333333 0.125000000000001  14.0625 0.375  C 14.3541666666667 0.624999999999999  14.5 0.928571428571428  14.5 1.28571428571429  C 14.5 1.46428571428571  14.4583333333333 1.63839285714285  14.375 1.80803571428571  C 16.3541666666667 2.05803571428571  17.953125 2.765625  19.171875 3.93080357142857  C 20.390625 5.09598214285714  21 6.35714285714286  21 7.71428571428571  C 21 8.95535714285714  21.1015625 10.1160714285714  21.3046875 11.1964285714286  C 21.5078125 12.2767857142857  21.7682291666667 13.1964285714286  22.0859375 13.9553571428571  C 22.4036458333333 14.7142857142857  22.7916666666667 15.421875  23.25 16.078125  C 23.7083333333333 16.734375  24.1510416666667 17.2678571428571  24.578125 17.6785714285714  Z " fill-rule="nonzero" fill="#ffffff" stroke="none" transform="matrix(1 0 0 1 38 24 )" />
  </g>
</svg>