<?xml version="1.0" encoding="utf-8"?>
<svg version="1.1" xmlns:xlink="http://www.w3.org/1999/xlink" width="26px" height="24px" xmlns="http://www.w3.org/2000/svg">
  <g transform="matrix(1 0 0 1 -38 -24 )">
    <path d="M 25.4583333333333 1.71428571428571  L 23.8333333333333 1.71428571428571  C 23.8333333333333 4.04464285714286  23.232421875 6.10491071428571  22.0305989583333 7.89508928571429  C 20.8287760416667 9.68526785714286  19.3250868055556 11.0535714285714  17.51953125 12  C 19.3250868055556 12.9464285714286  20.8287760416667 14.3147321428571  22.0305989583333 16.1049107142857  C 23.232421875 17.8950892857143  23.8333333333333 19.9553571428571  23.8333333333333 22.2857142857143  L 25.4583333333333 22.2857142857143  C 25.6163194444444 22.2857142857143  25.74609375 22.3258928571429  25.84765625 22.40625  C 25.94921875 22.4866071428571  26 22.5892857142857  26 22.7142857142857  L 26 23.5714285714286  C 26 23.6964285714286  25.94921875 23.7991071428571  25.84765625 23.8794642857143  C 25.74609375 23.9598214285714  25.6163194444444 24  25.4583333333333 24  L 0.541666666666667 24  C 0.383680555555556 24  0.25390625 23.9598214285714  0.15234375 23.8794642857143  C 0.05078125 23.7991071428571  0 23.6964285714286  0 23.5714285714286  L 0 22.7142857142857  C 0 22.5892857142857  0.05078125 22.4866071428571  0.15234375 22.40625  C 0.25390625 22.3258928571429  0.383680555555556 22.2857142857143  0.541666666666667 22.2857142857143  L 2.16666666666667 22.2857142857143  C 2.16666666666667 19.9553571428571  2.767578125 17.8950892857143  3.96940104166667 16.1049107142857  C 5.17122395833333 14.3147321428571  6.67491319444444 12.9464285714286  8.48046875 12  C 6.67491319444444 11.0535714285714  5.17122395833333 9.68526785714286  3.96940104166667 7.89508928571429  C 2.767578125 6.10491071428571  2.16666666666667 4.04464285714286  2.16666666666667 1.71428571428571  L 0.541666666666667 1.71428571428571  C 0.383680555555556 1.71428571428571  0.25390625 1.67410714285714  0.15234375 1.59375  C 0.05078125 1.51339285714286  0 1.41071428571428  0 1.28571428571429  L 0 0.42857142857143  C 0 0.303571428571426  0.05078125 0.200892857142857  0.15234375 0.120535714285714  C 0.25390625 0.0401785714285703  0.383680555555556 0  0.541666666666667 0  L 25.4583333333333 0  C 25.6163194444444 0  25.74609375 0.0401785714285703  25.84765625 0.120535714285714  C 25.94921875 0.200892857142857  26 0.303571428571426  26 0.42857142857143  L 26 1.28571428571429  C 26 1.41071428571428  25.94921875 1.51339285714286  25.84765625 1.59375  C 25.74609375 1.67410714285714  25.6163194444444 1.71428571428571  25.4583333333333 1.71428571428571  Z M 20.2278645833333 7  C 21.1870659722222 5.26785714285714  21.6666666666667 3.55357142857143  21.6666666666667 2  L 4.33333333333333 2  C 4.33333333333333 3.55357142857143  4.81293402777778 5.26785714285714  5.77213541666667 7  L 20.2278645833333 7  Z M 5.29817708333333 18  L 20.7018229166667 18  C 20.0924479166667 16.7410714285714  19.271484375 15.6629464285714  18.2389322916667 14.765625  C 17.2063802083333 13.8683035714286  16.1089409722222 13.2321428571429  14.9466145833333 12.8571428571429  L 11.0533854166667 12.8571428571429  C 9.89105902777778 13.2321428571429  8.79361979166667 13.8683035714286  7.76106770833333 14.765625  C 6.728515625 15.6629464285714  5.90755208333333 16.7410714285714  5.29817708333333 18  Z " fill-rule="nonzero" fill="#ffffff" stroke="none" transform="matrix(1 0 0 1 38 24 )" />
  </g>
</svg>