<?xml version="1.0" encoding="utf-8"?>
<svg version="1.1" xmlns:xlink="http://www.w3.org/1999/xlink" width="26px" height="24px" xmlns="http://www.w3.org/2000/svg">
  <g transform="matrix(1 0 0 1 -38 -24 )">
    <path d="M 22.2627013630731 13.7116134060795  C 22.2734407269723 13.7365549493375  22.2788104089219 13.7739672642245  22.2788104089219 13.8238503507405  L 22.2788104089219 22.8028059236165  C 22.2788104089219 23.1270459859704  22.1767864518794 23.4076383476228  21.9727385377943 23.6445830085737  C 21.7686906237092 23.8815276695246  21.5270549359769 24  21.2478314745973 24  L 15.0619578686493 24  L 15.0619578686493 16.8168355416991  L 10.9380421313507 16.8168355416991  L 10.9380421313507 24  L 4.75216852540273 24  C 4.47294506402313 24  4.23130937629079 23.8815276695246  4.0272614622057 23.6445830085737  C 3.82321354812061 23.4076383476228  3.72118959107807 23.1270459859704  3.72118959107807 22.8028059236165  L 3.72118959107807 13.8238503507405  C 3.72118959107807 13.8113795791115  3.72387443205287 13.792673421668  3.72924411400248 13.76773187841  C 3.73461379595209 13.742790335152  3.73729863692689 13.7240841777085  3.73729863692689 13.7116134060795  L 13 4.84489477786438  L 22.2627013630731 13.7116134060795  Z M 25.9838909541512 12.0935307872175  C 25.9946303180504 12.2618862042089  25.9570425444031 12.4084177708496  25.8711276332094 12.5331254871395  L 24.8723667905824 13.9173811379579  C 24.7864518793887 14.0296180826189  24.6736885584469 14.0982073265783  24.5340768277571 14.1231488698363  L 24.4857496902107 14.1231488698363  C 24.3461379595209 14.1231488698363  24.2333746385791 14.0795011691348  24.1474597273854 13.9922057677319  L 13 3.1987529228371  L 1.85254027261462 13.9922057677319  C 1.72366790582404 14.0919719407638  1.59479553903346 14.1356196414653  1.46592317224287 14.1231488698363  C 1.32631144155308 14.0982073265783  1.21354812061132 14.0296180826189  1.1276332094176 13.9173811379579  L 0.128872366790582 12.5331254871395  C 0.0429574555968608 12.4084177708496  0.00536968194960764 12.2618862042089  0.0161090458488228 12.0935307872175  C 0.0268484097480381 11.925175370226  0.0859149111937216 11.7911145752143  0.193308550185874 11.6913484021824  L 11.7757125154895 0.486360093530788  C 12.1193721602644 0.162120031176927  12.5274679884345 0  13 0  C 13.4725320115655 0  13.8806278397356 0.162120031176927  14.2242874845105 0.486360093530788  L 18.1548946716233 4.30241621200312  L 18.1548946716233 0.654715510522212  C 18.1548946716233 0.480124707716287  18.2032218091698 0.336710833982852  18.2998760842627 0.224473889321903  C 18.3965303593556 0.112236944660951  18.5200330441966 0.0561184723304757  18.6703841387856 0.0561184723304757  L 21.7633209417596 0.0561184723304757  C 21.9136720363486 0.0561184723304757  22.0371747211896 0.112236944660951  22.1338289962825 0.224473889321903  C 22.2304832713755 0.336710833982852  22.2788104089219 0.480124707716287  22.2788104089219 0.654715510522212  L 22.2788104089219 8.28682774746687  L 25.8066914498141 11.6913484021824  C 25.9140850888063 11.7911145752143  25.973151590252 11.925175370226  25.9838909541512 12.0935307872175  Z " fill-rule="nonzero" fill="#ffffff" stroke="none" transform="matrix(1 0 0 1 38 24 )" />
  </g>
</svg>