<?xml version="1.0" encoding="utf-8"?>
<svg version="1.1" xmlns:xlink="http://www.w3.org/1999/xlink" width="30px" height="28px" xmlns="http://www.w3.org/2000/svg">
  <defs>
    <filter x="36px" y="22px" width="30px" height="28px" filterUnits="userSpaceOnUse" id="filter44">
      <feOffset dx="0" dy="0" in="SourceAlpha" result="shadowOffsetInner" />
      <feGaussianBlur stdDeviation="1" in="shadowOffsetInner" result="shadowGaussian" />
      <feComposite in2="shadowGaussian" operator="atop" in="SourceAlpha" result="shadowComposite" />
      <feColorMatrix type="matrix" values="0 0 0 0 0  0 0 0 0 0  0 0 0 0 0  0 0 0 0.313725490196078 0  " in="shadowComposite" />
    </filter>
    <g id="widget45">
      <path d="M 15.8354430379747 23.8380681818182  C 15.6751054852321 23.9460227272727  15.4852320675105 24  15.2658227848101 24  L 10.9113924050633 24  C 10.6919831223629 24  10.5021097046414 23.9488636363636  10.3417721518987 23.8465909090909  C 10.1814345991561 23.7443181818182  10.1012658227848 23.6136363636364  10.1012658227848 23.4545454545455  L 10.1012658227848 17.8295454545455  L 2.81012658227848 17.8295454545455  C 2.59071729957806 17.8295454545455  2.40084388185654 17.7784090909091  2.24050632911392 17.6761363636364  C 2.08016877637131 17.5738636363636  2 17.4431818181818  2 17.2840909090909  L 2 15.5284090909091  C 2 15.3806818181818  2.08016877637131 15.2528409090909  2.24050632911392 15.1448863636364  C 2.40084388185654 15.0369318181818  2.59071729957806 14.9829545454545  2.81012658227848 14.9829545454545  L 10.1012658227848 14.9829545454545  L 10.1012658227848 13.5340909090909  L 2.81012658227848 13.5340909090909  C 2.59071729957806 13.5340909090909  2.40084388185654 13.4829545454545  2.24050632911392 13.3806818181818  C 2.08016877637131 13.2784090909091  2 13.1477272727273  2 12.9886363636364  L 2 11.2159090909091  C 2 11.0681818181818  2.08016877637131 10.9403409090909  2.24050632911392 10.8323863636364  C 2.40084388185654 10.7244318181818  2.59071729957806 10.6704545454545  2.81012658227848 10.6704545454545  L 8.22784810126582 10.6704545454545  L 0.10126582278481 0.818181818181817  C -0.0337552742616034 0.636363636363636  -0.0337552742616034 0.454545454545451  0.10126582278481 0.272727272727272  C 0.270042194092827 0.0909090909090908  0.506329113924051 0  0.810126582278481 0  L 5.72151898734177 0  C 6.04219409282701 0  6.28691983122363 0.102272727272728  6.45569620253165 0.306818181818183  L 11.8987341772152 7.55113636363636  C 12.2194092827004 7.98295454545454  12.6919831223629 8.69318181818182  13.3164556962025 9.68181818181818  C 13.4852320675106 9.40909090909091  13.7426160337553 9.02272727272727  14.0886075949367 8.52272727272727  C 14.4345991561181 8.02272727272727  14.6666666666667 7.67613636363636  14.7848101265823 7.48295454545455  L 19.620253164557 0.323863636363638  C 19.7552742616034 0.107954545454543  20 0  20.3544303797468 0  L 25.1898734177215 0  C 25.4767932489452 0  25.704641350211 0.0909090909090908  25.873417721519 0.272727272727272  C 26.0253164556962 0.431818181818181  26.0337552742616 0.607954545454544  25.8987341772152 0.801136363636362  L 17.9746835443038 10.6704545454545  L 23.4177215189873 10.6704545454545  C 23.6371308016878 10.6704545454545  23.8270042194093 10.7244318181818  23.9873417721519 10.8323863636364  C 24.1476793248945 10.9403409090909  24.2278481012658 11.0681818181818  24.2278481012658 11.2159090909091  L 24.2278481012658 12.9886363636364  C 24.2278481012658 13.1477272727273  24.1476793248945 13.2784090909091  23.9873417721519 13.3806818181818  C 23.8270042194093 13.4829545454545  23.6371308016878 13.5340909090909  23.4177215189873 13.5340909090909  L 16.0759493670886 13.5340909090909  L 16.0759493670886 14.9829545454545  L 23.4177215189873 14.9829545454545  C 23.6371308016878 14.9829545454545  23.8270042194093 15.0369318181818  23.9873417721519 15.1448863636364  C 24.1476793248945 15.2528409090909  24.2278481012658 15.3806818181818  24.2278481012658 15.5284090909091  L 24.2278481012658 17.2840909090909  C 24.2278481012658 17.4431818181818  24.1476793248945 17.5738636363636  23.9873417721519 17.6761363636364  C 23.8270042194093 17.7784090909091  23.6371308016878 17.8295454545455  23.4177215189873 17.8295454545455  L 16.0759493670886 17.8295454545455  L 16.0759493670886 23.4545454545455  C 16.0759493670886 23.6022727272727  15.9957805907173 23.7301136363636  15.8354430379747 23.8380681818182  Z " fill-rule="nonzero" fill="#ffffff" stroke="none" transform="matrix(1 0 0 1 38 24 )" />
    </g>
  </defs>
  <g transform="matrix(1 0 0 1 -36 -22 )">
    <use xlink:href="#widget45" filter="url(#filter44)" />
    <use xlink:href="#widget45" />
  </g>
</svg>