<?xml version="1.0" encoding="utf-8"?>
<svg version="1.1" xmlns:xlink="http://www.w3.org/1999/xlink" width="26px" height="24px" xmlns="http://www.w3.org/2000/svg">
  <g transform="matrix(1 0 0 1 -38 -24 )">
    <path d="M 18.109375 18.2075892857143  C 18.546875 17.7745535714286  18.765625 17.2321428571429  18.765625 16.5803571428571  C 18.765625 16.0714285714286  18.7369791666667 15.59375  18.6796875 15.1473214285714  C 18.6223958333333 14.7008928571429  18.5130208333333 14.2522321428571  18.3515625 13.8013392857143  C 18.1901041666667 13.3504464285714  17.984375 12.9665178571429  17.734375 12.6495535714286  C 17.484375 12.3325892857143  17.1510416666667 12.0736607142857  16.734375 11.8727678571429  C 16.3177083333333 11.671875  15.84375 11.5714285714286  15.3125 11.5714285714286  C 15.25 11.6071428571429  15.0755208333333 11.6986607142857  14.7890625 11.8459821428571  C 14.5026041666667 11.9933035714286  14.28125 12.1026785714286  14.125 12.1741071428571  C 13.96875 12.2455357142857  13.7578125 12.3348214285714  13.4921875 12.4419642857143  C 13.2265625 12.5491071428571  12.9713541666667 12.625  12.7265625 12.6696428571429  C 12.4817708333333 12.7142857142857  12.2395833333333 12.7366071428571  12 12.7366071428571  C 11.7604166666667 12.7366071428571  11.5182291666667 12.7142857142857  11.2734375 12.6696428571429  C 11.0286458333333 12.625  10.7734375 12.5491071428571  10.5078125 12.4419642857143  C 10.2421875 12.3348214285714  10.03125 12.2455357142857  9.875 12.1741071428571  C 9.71875 12.1026785714286  9.49739583333333 11.9933035714286  9.2109375 11.8459821428571  C 8.92447916666667 11.6986607142857  8.75 11.6071428571429  8.6875 11.5714285714286  C 8.15625 11.5714285714286  7.68229166666667 11.671875  7.265625 11.8727678571429  C 6.84895833333333 12.0736607142857  6.515625 12.3325892857143  6.265625 12.6495535714286  C 6.015625 12.9665178571429  5.80989583333333 13.3504464285714  5.6484375 13.8013392857143  C 5.48697916666667 14.2522321428571  5.37760416666667 14.7008928571429  5.3203125 15.1473214285714  C 5.26302083333333 15.59375  5.234375 16.0714285714286  5.234375 16.5803571428571  C 5.234375 17.2321428571429  5.453125 17.7745535714286  5.890625 18.2075892857143  C 6.328125 18.640625  6.86458333333333 18.8571428571429  7.5 18.8571428571429  L 16.5 18.8571428571429  C 17.1354166666667 18.8571428571429  17.671875 18.640625  18.109375 18.2075892857143  Z M 14.8671875 11.0758928571429  C 15.6640625 10.3973214285714  16.0625 9.58035714285714  16.0625 8.625  C 16.0625 7.66071428571429  15.6640625 6.83928571428571  14.8671875 6.16071428571429  C 14.0703125 5.48214285714286  13.1145833333333 5.14285714285714  12 5.14285714285714  C 10.8854166666667 5.14285714285714  9.9296875 5.48214285714286  9.1328125 6.16071428571429  C 8.3359375 6.83928571428571  7.9375 7.66071428571429  7.9375 8.625  C 7.9375 9.58035714285714  8.3359375 10.3973214285714  9.1328125 11.0758928571429  C 9.9296875 11.7544642857143  10.8854166666667 12.09375  12 12.09375  C 13.1145833333333 12.09375  14.0703125 11.7544642857143  14.8671875 11.0758928571429  Z M 25.859375 15.5491071428571  C 25.953125 15.6294642857143  26 15.7321428571429  26 15.8571428571429  L 26 18.4285714285714  C 26 18.5535714285714  25.953125 18.65625  25.859375 18.7366071428571  C 25.765625 18.8169642857143  25.6458333333333 18.8571428571429  25.5 18.8571428571429  L 24 18.8571428571429  L 24 21.8571428571429  C 24 22.4464285714286  23.7552083333333 22.9508928571429  23.265625 23.3705357142857  C 22.7760416666667 23.7901785714286  22.1875 24  21.5 24  L 2.5 24  C 1.8125 24  1.22395833333333 23.7901785714286  0.734375 23.3705357142857  C 0.244791666666667 22.9508928571429  0 22.4464285714286  0 21.8571428571429  L 0 2.14285714285714  C 0 1.55357142857143  0.244791666666667 1.04910714285714  0.734375 0.629464285714286  C 1.22395833333333 0.209821428571429  1.8125 0  2.5 0  L 21.5 0  C 22.1875 0  22.7760416666667 0.209821428571429  23.265625 0.629464285714286  C 23.7552083333333 1.04910714285714  24 1.55357142857143  24 2.14285714285714  L 24 5.14285714285714  L 25.5 5.14285714285714  C 25.6458333333333 5.14285714285714  25.765625 5.18303571428571  25.859375 5.26339285714286  C 25.953125 5.34375  26 5.44642857142857  26 5.57142857142857  L 26 8.14285714285714  C 26 8.26785714285714  25.953125 8.37053571428571  25.859375 8.45089285714286  C 25.765625 8.53125  25.6458333333333 8.57142857142857  25.5 8.57142857142857  L 24 8.57142857142857  L 24 10.2857142857143  L 25.5 10.2857142857143  C 25.6458333333333 10.2857142857143  25.765625 10.3258928571429  25.859375 10.40625  C 25.953125 10.4866071428571  26 10.5892857142857  26 10.7142857142857  L 26 13.2857142857143  C 26 13.4107142857143  25.953125 13.5133928571429  25.859375 13.59375  C 25.765625 13.6741071428571  25.6458333333333 13.7142857142857  25.5 13.7142857142857  L 24 13.7142857142857  L 24 15.4285714285714  L 25.5 15.4285714285714  C 25.6458333333333 15.4285714285714  25.765625 15.46875  25.859375 15.5491071428571  Z " fill-rule="nonzero" fill="#ffffff" stroke="none" transform="matrix(1 0 0 1 38 24 )" />
  </g>
</svg>